<?xml version="1.0" encoding="UTF-8"?>
<svg width="100pt" height="100pt" version="1.1" viewBox="0 0 100 100" xmlns="http://www.w3.org/2000/svg">
 <path d="m5 42.508 24.812-0.078124-0.23047-35.43h20.484l0.67578 15.316s10.477 5.1367 15.367 5.1367c4.8906 0.003906 13.914-1.8164 15.355-1.3555 1.4414 0.46484 8.3242 2.9922 8.3242 2.9922l1.0391 11.266s4.5 4.1719 3.9102 10.164c-0.59375 5.9922-3.0781 9.4258-4.1445 9.875s-9.1289 8.3438-9.918 8.2422c-0.78906-0.10156-10.262 3.7891-10.285 7.9258s1.5352 13.43 1.5352 13.43-8.543 3.2891-12.453-2.0156c-3.9141-5.3008-12.148-26.055-20.965-26.949-7.5586-0.76562-8.1367 6.1055-11.262 6.082-3.1289-0.019531-7.9297-5.7266-10.098-12.094-6.1562-6.0234-12.148-12.508-12.148-12.508z"/>
</svg>
